<?xml version="1.0" standalone="no"?>
<!DOCTYPE svg PUBLIC "-//W3C//DTD SVG 1.1//EN" "http://www.w3.org/Graphics/SVG/1.1/DTD/svg11.dtd" >
<svg xmlns="http://www.w3.org/2000/svg">
<metadata></metadata>
<defs>
<font id="bg-light" horiz-adv-x="1024" >
<font-face units-per-em="2048" ascent="1638" descent="-410" />
<missing-glyph horiz-adv-x="563" />
<glyph horiz-adv-x="0" />
<glyph horiz-adv-x="682" />
<glyph unicode=" "  horiz-adv-x="563" />
<glyph unicode="&#x09;" horiz-adv-x="563" />
<glyph unicode="&#xa0;" horiz-adv-x="563" />
<glyph unicode="!" horiz-adv-x="796" d="M279 111q0 51 36.5 86.5t83.5 35.5t84 -35.5t37 -86.5q0 -49 -34.5 -85t-88.5 -36q-57 0 -87.5 38t-30.5 83zM317 1397h156l-24 -920h-99z" />
<glyph unicode="&#x22;" horiz-adv-x="681" d="M143 881v555h136v-555h-136zM406 881v555h135v-555h-135z" />
<glyph unicode="#" horiz-adv-x="1228" d="M111 561h233l43 311h-215l-4 111h233l64 451h125l-64 -451h267l63 451h125l-63 -451h196l4 -111h-215l-43 -311h197l4 -110h-217l-62 -451h-127l64 451h-266l-62 -451h-127l64 451h-213zM469 561h266l43 311h-266z" />
<glyph unicode="$" horiz-adv-x="1138" d="M121 170l69 111q59 -70 135 -106t175 -50v496q-115 45 -183.5 83.5t-116.5 104t-48 166.5q0 94 49 159.5t129 98.5t170 33v180h106v-180q104 -12 181 -42t147 -94l-70 -104q-68 55 -128 88t-130 43v-428q131 -53 196.5 -88t116 -100.5t50.5 -169.5q0 -162 -97.5 -249 t-265.5 -108v-272h-106v268q-119 8 -199 44t-180 116zM281 981q0 -55 24.5 -94t75.5 -68q23 -12 58.5 -27.5t60.5 -23.5v393q-115 -4 -167 -58t-52 -122zM606 129q105 8 170.5 61.5t65.5 155.5t-64.5 153.5t-171.5 88.5v-459z" />
<glyph unicode="%" horiz-adv-x="2048" d="M215 958q0 89 45 162.5t120 116.5t163 43q84 0 156.5 -43t116.5 -116.5t44 -162.5q0 -88 -43 -162.5t-115.5 -118.5t-158.5 -44t-162 42t-121 115.5t-45 167.5zM346 956q0 -82 56.5 -137t138.5 -55t135 57.5t53 134.5q0 86 -57.5 139.5t-128.5 53.5q-78 0 -137.5 -54.5 t-59.5 -138.5zM561 -12l821 1331h105l-821 -1331h-105zM1188 344q0 88 44 162t119.5 117t164.5 43q82 0 155.5 -43t117.5 -117t44 -162t-43 -163t-115.5 -119t-158.5 -44t-162 42t-121 116t-45 168zM1317 342q0 -82 57.5 -137t136.5 -55q82 0 136.5 57t54.5 137 q0 57 -28.5 101t-71.5 68t-86 24q-82 0 -140.5 -54.5t-58.5 -140.5z" />
<glyph unicode="&#x26;" horiz-adv-x="1478" d="M139 365q0 115 54.5 200.5t123 136t156.5 99.5q-59 94 -87 162.5t-28 152.5q0 72 38 134.5t102.5 100.5t142.5 38q104 0 168.5 -44.5t92.5 -106.5t28 -120q0 -205 -283 -356q74 -119 132.5 -198t166.5 -212l27 -35q63 82 114.5 169t90.5 210l122 -55q-69 -221 -241 -414 q55 -68 104 -103.5t121 -35.5q37 0 57.5 7t47.5 24v-142q-23 -8 -51.5 -15t-61.5 -7q-102 0 -171 46t-140 122q-100 -98 -210 -134t-182 -36q-145 0 -243.5 62.5t-144.5 157.5t-46 192zM283 362q0 -43 21.5 -107.5t85 -118.5t181.5 -54q103 0 184 44t124 97 q-102 113 -177 219.5t-170 253.5q-86 -51 -135 -91t-81.5 -99.5t-32.5 -143.5zM485 1116q0 -104 101 -256q92 51 152.5 110.5t60.5 153.5q0 84 -51.5 122t-106.5 38q-84 0 -120 -53t-36 -115z" />
<glyph unicode="'" horiz-adv-x="454" d="M160 881v555h135v-555h-135z" />
<glyph unicode="(" horiz-adv-x="796" d="M199 686q0 238 80.5 406t193.5 307h145q-139 -152 -217.5 -341.5t-78.5 -369.5q0 -158 36.5 -278.5t96 -217t161.5 -229.5h-137q-147 178 -213.5 343t-66.5 380z" />
<glyph unicode=")" horiz-adv-x="796" d="M178 1399h146q112 -139 193 -307t81 -406q0 -215 -66.5 -380t-214.5 -343h-137q102 133 161.5 229.5t96.5 217t37 278.5q0 180 -79 369.5t-218 341.5z" />
<glyph unicode="*" horiz-adv-x="1138" d="M195 1075l41 131l296 -133l-36 322h131l-31 -322l299 146l45 -132l-330 -67l238 -240l-109 -86l-174 287l-147 -285l-113 84l217 238z" />
<glyph unicode="+" horiz-adv-x="1228" d="M98 451v135h449v450h135v-450h448v-135h-448v-451h-135v451h-449z" />
<glyph unicode="," horiz-adv-x="569" d="M29 -377l237 604h129l-235 -604h-131z" />
<glyph unicode="-" horiz-adv-x="681" d="M80 471v113h524v-113h-524z" />
<glyph unicode="." horiz-adv-x="569" d="M156 106q0 51 36.5 87t86.5 36q51 0 87.5 -36.5t36.5 -86.5q0 -51 -36.5 -85.5t-85.5 -34.5q-52 0 -88.5 34.5t-36.5 85.5z" />
<glyph unicode="/" horiz-adv-x="569" d="M-45 -49l516 1438h143l-520 -1438h-139z" />
<glyph unicode="0" horiz-adv-x="1138" d="M147 614q0 344 120 510t313 166q104 0 198 -65.5t154.5 -212t60.5 -377.5q0 -262 -90 -467t-319 -205q-236 0 -336.5 194.5t-100.5 456.5zM285 641q0 -229 66.5 -397t219.5 -168q166 0 224.5 174t58.5 381q0 209 -60.5 376t-232.5 167q-162 0 -219 -168t-57 -365z" />
<glyph unicode="1" horiz-adv-x="1138" d="M184 1139v116h475v-1140h271v-115h-699v115h281v1024h-328z" />
<glyph unicode="2" horiz-adv-x="1138" d="M137 999q51 109 140.5 196t261.5 87q129 0 217 -50t131 -131t43 -173q0 -98 -48 -179t-114 -138.5t-176 -139.5q-94 -70 -146.5 -113t-101.5 -105.5t-59 -129.5h659v-123h-803q14 139 58.5 231.5t109 157t193.5 166.5l59 47q127 106 175 171t48 145q0 104 -63.5 173.5 t-183.5 69.5q-209 0 -295 -231z" />
<glyph unicode="3" horiz-adv-x="1138" d="M115 -45v106q157 2 276 19.5t236 81.5q86 47 144 116.5t58 155.5q0 102 -62 152.5t-167 50.5q-49 0 -90 -9.5t-98 -29.5l-37 98l65 29q96 41 160 76t111 90t47 129q0 63 -48 104t-130 41q-94 0 -171 -41t-167 -118l-62 94q211 182 395 182q168 0 246 -80t78 -186 q0 -92 -50 -145.5t-130 -102.5q-33 -20 -51 -35v-4q0 -8 32 -8q123 0 199 -78t76 -201q0 -150 -94.5 -248t-180.5 -139q-125 -63 -268 -80.5t-317 -19.5z" />
<glyph unicode="4" horiz-adv-x="1138" d="M100 371v176l512 733h232v-786h166v-123h-166v-371h-139v371h-605zM223 512q0 -10 3 -14t16 -4h460v655q0 20 -12 20q-8 0 -22 -14l-439 -625q-6 -12 -6 -18z" />
<glyph unicode="5" horiz-adv-x="1138" d="M109 25l22 122q115 -43 176.5 -58t149.5 -15q133 0 219 56t125 138t39 164q0 98 -45 161.5t-113 91.5t-135 28q-82 0 -133.5 -23.5t-86 -50.5t-40.5 -27h-117l72 643h649v-112h-541l-33 -363q63 29 117.5 44.5t128.5 15.5q104 0 198.5 -43t155 -133.5t60.5 -221.5 q0 -156 -75 -265t-201 -163.5t-279 -54.5q-84 0 -176 20.5t-137 45.5z" />
<glyph unicode="6" horiz-adv-x="1138" d="M113 471q0 215 94 403.5t266 409.5h186q-86 -88 -191.5 -223t-160.5 -254q-27 -55 -42 -111.5t-15 -66.5q0 -12 6 -13q18 0 29 11q82 82 147.5 115.5t167.5 33.5q117 0 209 -55t144.5 -148.5t52.5 -203.5q0 -129 -58.5 -223.5t-160 -144.5t-228.5 -50q-141 0 -242.5 72.5 t-152.5 191.5t-51 256zM281 365q0 -80 38.5 -147.5t106.5 -107.5t147 -40q80 0 147.5 40t107.5 107.5t40 147.5q0 79 -40 147t-107.5 106.5t-147.5 38.5t-147.5 -39.5t-106 -107.5t-38.5 -145z" />
<glyph unicode="7" horiz-adv-x="1138" d="M109 1128v127h858v-77q-154 -272 -279 -557t-217 -621h-172q51 207 198.5 525.5t303.5 602.5h-692z" />
<glyph unicode="8" horiz-adv-x="1138" d="M109 330q0 98 31.5 159.5t67.5 88t99 61.5q14 8 39 17.5t25 17.5t-37 18q-47 16 -72 33q-117 74 -117 219q0 162 114 248t292 86q168 0 290 -79t122 -238q0 -80 -35 -138.5t-88 -89.5l-62 -33q-41 -20 -41 -24q0 -6 8.5 -11.5t28.5 -11.5q113 -45 169 -123.5t56 -199.5 q0 -193 -135 -284t-340 -91q-129 0 -223 51t-143 136t-49 188zM254 340q0 -121 79 -197.5t214 -76.5q154 0 233.5 79.5t79.5 196.5q0 98 -52 158.5t-123 86t-130 25.5q-106 0 -203.5 -59t-97.5 -213zM281 948q0 -100 74.5 -161.5t176.5 -61.5q135 0 216 56.5t81 176.5 q0 91 -72.5 148t-217.5 57q-109 0 -183.5 -55t-74.5 -160z" />
<glyph unicode="9" horiz-adv-x="1138" d="M106 850q0 129 54.5 228.5t154 153.5t228.5 54q139 0 241.5 -66.5t157.5 -180t55 -253.5q0 -225 -94 -424.5t-266 -404.5h-184q88 88 164.5 180t146.5 219q27 45 62.5 130t35.5 118q0 6 -4 11.5t-12 5.5q-6 0 -14.5 -6.5t-20.5 -22.5q-61 -72 -128 -100.5t-161 -28.5 q-111 0 -206 48t-152.5 137t-57.5 202zM244 874q0 -81 39 -148t107.5 -105.5t148.5 -38.5q78 0 145.5 38.5t107 106.5t39.5 147q0 80 -39.5 148t-107.5 107.5t-145 39.5q-80 0 -147.5 -39.5t-107.5 -107.5t-40 -148z" />
<glyph unicode=":" horiz-adv-x="681" d="M219 106q0 53 38 88t87 35t85 -35.5t36 -87.5q0 -51 -35 -86.5t-84 -35.5q-57 0 -92 36.5t-35 85.5zM219 877q0 53 38 87.5t87 34.5t85 -35.5t36 -86.5t-35 -87t-84 -36q-57 0 -92 36.5t-35 86.5z" />
<glyph unicode=";" horiz-adv-x="681" d="M49 -373l236 604h133l-242 -604h-127zM217 885q0 51 39 87t86 36q49 0 88 -37t39 -88q0 -45 -34 -83t-91 -38t-92 37t-35 86z" />
<glyph unicode="&#x3c;" horiz-adv-x="1228" d="M94 455v127l1041 471v-140l-871 -395l871 -395v-139z" />
<glyph unicode="=" horiz-adv-x="1228" d="M98 246v135h1032v-135h-1032zM98 655v136h1032v-136h-1032z" />
<glyph unicode="&#x3e;" horiz-adv-x="1228" d="M94 -16v139l871 395l-871 395v140l1041 -471v-127z" />
<glyph unicode="?" d="M109 1149q41 88 137 170t262 82q106 0 180 -43t112 -113.5t38 -148.5q0 -94 -44 -161t-126 -147q-63 -61 -90 -96t-38.5 -83t-11.5 -136h-116v88q0 86 32.5 146.5t92.5 121.5l65 68q49 51 72.5 97t23.5 106q0 78 -50 131t-159 53q-68 0 -133 -32.5t-116 -151.5zM342 102 q0 50 35 85.5t88 35.5q49 0 86 -35.5t37 -85.5q0 -51 -36 -84.5t-87 -33.5q-53 0 -88 33.5t-35 84.5z" />
<glyph unicode="@" horiz-adv-x="1638" d="M109 723q0 201 101 370t271 267t369 98q182 0 339 -77.5t249 -211t92 -290.5q0 -160 -74 -289t-183.5 -203t-209.5 -74q-55 0 -92 35t-39 96l-4 -4q-51 -53 -115.5 -90t-138.5 -37q-78 0 -139.5 41t-96.5 107.5t-35 142.5q0 129 58.5 255t164 206t240.5 80 q70 0 128.5 -40t92.5 -120l41 115h123l-151 -516q-18 -59 -19 -97q0 -59 43 -59q70 0 135.5 64.5t106.5 160t41 181.5q0 156 -76 272.5t-203 180t-278 63.5q-172 0 -312.5 -86t-221 -233.5t-80.5 -319.5q0 -174 83.5 -317.5t227 -226.5t315.5 -83q141 0 275.5 65.5 t220.5 176.5l74 -70q-91 -125 -243.5 -203t-330.5 -78q-207 0 -379 99.5t-271 270.5t-99 378zM547 637q0 -88 48 -142.5t120 -54.5q82 0 153.5 64.5t114.5 158t43 166.5q0 74 -49 133.5t-111 59.5q-88 0 -161.5 -64.5t-115.5 -155.5t-42 -165z" />
<glyph unicode="A" horiz-adv-x="1366" d="M86 0l528 1380h144l524 -1380h-154l-122 332h-646l-122 -332h-152zM401 446h566l-271 738q-2 6 -10 6q-4 0 -10 -10z" />
<glyph unicode="B" horiz-adv-x="1366" d="M274 0v1360h455q113 0 195 -21.5t139 -74.5q59 -55 76.5 -118t17.5 -106q0 -102 -46 -166.5t-101.5 -91t-91.5 -32.5q-4 -2 -5 -9q0 -12 23 -12q70 -8 133.5 -51t102 -116t38.5 -165q0 -86 -32.5 -164.5t-98.5 -136.5q-72 -63 -158.5 -79.5t-213.5 -16.5h-433zM418 123 h303q88 0 159.5 13.5t131 72.5t59.5 182q0 63 -20.5 122.5t-98.5 107.5q-96 57 -241 57h-293v-555zM418 793l162 -2q104 0 164.5 5t107.5 19q68 18 119 71.5t51 137.5q0 74 -44 128t-110 77q-53 18 -145 18h-305v-454z" />
<glyph unicode="C" horiz-adv-x="1251" d="M164 612q0 147 21.5 283.5t86.5 253.5q86 154 196 197t214 43q160 0 265.5 -104.5t123.5 -274.5l-123 -41q-12 137 -84.5 222t-199.5 85q-152 0 -233 -117t-105.5 -253t-24.5 -242q0 -203 64.5 -400.5t289.5 -197.5q143 0 216 97t94 234l122 -37q-10 -82 -51 -174 t-134 -163.5t-243 -71.5q-92 0 -189 32.5t-181 153.5q-125 180 -125 475z" />
<glyph unicode="D" horiz-adv-x="1366" d="M270 0v1360h353q170 0 289.5 -46t211.5 -194q59 -98 80 -206.5t21 -243.5q0 -145 -43 -274.5t-127 -229.5q-90 -104 -202 -135t-271 -31h-312zM412 123h192q150 0 243 40t159 159q45 80 63 186t18 172q0 367 -198 496q-51 33 -98.5 46t-121 16t-257.5 3v-1118z" />
<glyph unicode="E" horiz-adv-x="1366" d="M295 0v1360h858v-119h-717v-463h617v-125h-617v-530h740v-123h-881z" />
<glyph unicode="F" horiz-adv-x="1251" d="M252 0v1360h852v-119h-711v-491h598v-119h-598v-631h-141z" />
<glyph unicode="G" horiz-adv-x="1366" d="M164 641q0 213 48 364.5t132 239.5q86 92 170 118t166 26q35 0 101.5 -14.5t121.5 -53.5q74 -51 115 -121t65 -141l-122 -47q-27 75 -53.5 127.5t-86 93.5t-153.5 41q-213 0 -288 -196.5t-75 -448.5q0 -106 30 -234.5t110.5 -228.5t226.5 -100q139 0 225 86 q68 70 89.5 162t23.5 198h-365v119h483v-668h-43l-79 158q-57 -68 -134 -119t-192 -51q-166 0 -264.5 66.5t-153.5 172.5q-57 109 -77.5 235t-20.5 216z" />
<glyph unicode="H" horiz-adv-x="1478" d="M299 0v1360h143v-588h596v588h144v-1360h-144v653h-596v-653h-143z" />
<glyph unicode="I" horiz-adv-x="796" d="M176 0v80h150v1200h-150v80h442v-80h-149v-1200h149v-80h-442z" />
<glyph unicode="J" d="M33 303l153 72q-4 -53 -4 -78q0 -74 39 -151.5t174 -77.5q111 0 164 54t65.5 120.5t12.5 150.5v967h141v-987q0 -164 -61.5 -276.5t-237.5 -141.5q-33 -6 -86 -6q-90 0 -155.5 22.5t-120.5 85.5q-84 94 -84 246z" />
<glyph unicode="K" horiz-adv-x="1366" d="M260 0v1360h137v-1360h-137zM465 737l622 623h173l-617 -617l664 -743h-189z" />
<glyph unicode="L" horiz-adv-x="1251" d="M281 0v1360h141v-1237h696v-123h-837z" />
<glyph unicode="M" horiz-adv-x="1820" d="M276 0v1360h285l240 -838l30 -123q16 -82 39 -163q14 -45 31 -46q23 0 36 34t20.5 69t9.5 47l14 59l37 133l239 828h289v-1360h-137v1266q0 14 -7 22t-20 8q-14 0 -20 -8t-14 -33q-4 -10 -8.5 -26.5t-10.5 -32.5q-4 -14 -7 -27.5t-7 -23.5l-328 -1145h-166l-289 1036 l-22 86q-23 90 -39 148q-6 16 -11 22t-18 6q-29 0 -28 -32v-1266h-138z" />
<glyph unicode="N" horiz-adv-x="1478" d="M287 0v1360h241l357 -862q29 -66 55 -146l55 -147q4 -10 12.5 -32.5t16.5 -35t18 -12.5q6 0 11.5 8t5.5 23v1204h135v-1360h-248l-377 924q-47 115 -86 219l-14 39q-8 23 -15.5 38t-15.5 15t-12 -6t-4 -12v-1217h-135z" />
<glyph unicode="O" horiz-adv-x="1251" d="M145 629q0 154 15.5 275.5t70.5 238.5q45 96 139.5 171t245.5 75q240 0 365 -185q61 -92 93 -235.5t32 -300.5q0 -273 -86 -461q-63 -141 -166.5 -198.5t-216.5 -57.5q-80 0 -167 25.5t-171 119.5q-86 98 -120 241.5t-34 291.5zM289 653q0 -266 71 -409q47 -92 115 -135 t146 -43q92 0 160.5 49t109.5 137q47 98 59.5 195.5t12.5 220.5q0 229 -68 417.5t-268 188.5q-121 0 -184.5 -69.5t-94.5 -145.5q-59 -145 -59 -406z" />
<glyph unicode="P" horiz-adv-x="1366" d="M303 0v1360h395q125 0 211 -20.5t146 -69.5q66 -53 100.5 -131t34.5 -174q0 -104 -38 -181t-87 -122q-68 -61 -145.5 -77t-194.5 -16h-279v-569h-143zM446 688h238q195 0 280 60.5t85 205.5q0 166 -93.5 229.5t-267.5 63.5h-242v-559z" />
<glyph unicode="Q" horiz-adv-x="1251" d="M145 629q0 154 15.5 275.5t70.5 238.5q45 96 139.5 171t245.5 75q240 0 365 -185q61 -92 93 -235.5t32 -300.5q0 -272 -86 -461q-45 -102 -127 -168l25 -37q74 -104 161 -104q31 0 68 10v-148q-37 -4 -76 -4q-82 0 -127 32t-94 103l-62 89q-23 -8 -77 -23q-39 -6 -74 -6 q-80 0 -167 25.5t-171 119.5q-86 98 -120 241.5t-34 291.5zM289 653q0 -270 69 -409q47 -90 116 -134t147 -44q51 0 96 16l-166 240l92 67l174 -244q45 41 74 107q47 98 59.5 195.5t12.5 220.5q0 229 -68 417.5t-268 188.5q-121 0 -184.5 -69.5t-94.5 -145.5 q-59 -145 -59 -406z" />
<glyph unicode="R" horiz-adv-x="1366" d="M295 0v1360h444q145 0 217 -28.5t123 -76.5q100 -94 101 -266q0 -147 -86 -259t-285 -118l428 -612h-172l-393 602h-236v-602h-141zM436 725h230q102 0 175.5 13.5t132 69.5t58.5 175q0 113 -46 168t-110.5 70.5t-148.5 15.5h-291v-512z" />
<glyph unicode="S" horiz-adv-x="1251" d="M172 268l123 60q29 -88 77 -140.5t87 -74.5q49 -29 97 -37t99 -8q57 0 118 23.5t104 81.5t43 153q0 78 -37 137t-109 94l-67 33q-57 29 -156 67q-70 29 -105 45q-66 33 -111.5 68t-82.5 107q-18 39 -27.5 83t-9.5 78q0 158 100.5 254.5t290.5 96.5q135 0 231.5 -62.5 t174.5 -218.5l-127 -64q-35 95 -95.5 162.5t-197.5 67.5q-82 0 -165 -49t-83 -185q0 -96 61.5 -148t147.5 -89l98 -39q88 -35 99 -39q109 -45 173 -93t98 -120t34 -180q0 -90 -40 -171t-102 -126q-74 -53 -151.5 -68.5t-153.5 -15.5q-291 0 -436 317z" />
<glyph unicode="T" horiz-adv-x="1251" d="M119 1241v119h1016v-119h-437v-1241h-145v1241h-434z" />
<glyph unicode="U" horiz-adv-x="1478" d="M291 401v959h143v-973q0 -127 53.5 -197.5t119 -95t114.5 -24.5q154 0 242 90t88 248v952h137v-954q0 -219 -123 -337t-342 -118q-203 0 -317.5 125t-114.5 325z" />
<glyph unicode="V" horiz-adv-x="1366" d="M133 1360h143l392 -1137q2 -2 4 -7t4 -5h14q4 0 7 5t3 7l392 1137h145l-485 -1360h-140z" />
<glyph unicode="W" horiz-adv-x="1933" d="M117 1360h141l262 -938l12 -51q2 -12 21.5 -87t28.5 -75h12q6 0 16.5 40t20.5 89q6 23 11 47.5t11 50.5l238 924h145l250 -934l14 -66q8 -47 19.5 -93t21.5 -58h13q8 0 23.5 56.5t29.5 113.5q2 12 14 61l248 920h148l-394 -1360h-145l-254 952q-16 70 -20 90 q-2 10 -12.5 49t-20.5 56h-15q-14 -16 -30 -98q-16 -78 -23 -105l-241 -944h-146z" />
<glyph unicode="X" horiz-adv-x="1366" d="M121 0l479 698l-448 662h163l267 -393q84 -135 86 -142q2 -6 6 -10t12 -4q10 0 29 35q45 80 104 168l234 346h153l-446 -651l485 -709h-166l-311 453q-18 25 -28.5 44t-24.5 46q-4 6 -9.5 20.5t-11.5 20.5q-8 8 -16 8q-10 0 -21 -10q-4 -4 -8 -14.5t-6 -14.5 q-8 -16 -49 -78l-25 -37l-297 -438h-151z" />
<glyph unicode="Y" horiz-adv-x="1366" d="M117 1360h157l361 -625q8 -14 18.5 -34.5t18.5 -29.5t18 -9q8 0 19.5 16t19.5 31.5t12 23.5q23 47 39 76l314 551h157l-491 -840v-520h-144v520z" />
<glyph unicode="Z" horiz-adv-x="1251" d="M152 0v96l620 973l47 66q10 14 39 54t29 44q0 8 -10 8h-711v119h901v-96l-606 -949q-6 -10 -63.5 -86.5t-57.5 -89.5q0 -18 33 -18h712v-121h-933z" />
<glyph unicode="[" horiz-adv-x="796" d="M129 0v1395q82 0 246 -4q119 -6 243 -7h70v-71q-74 0 -217 4l-219 2v-1243h76q160 0 360 10v-76q-94 0 -278 -4q-141 -6 -281 -6z" />
<glyph unicode="\" horiz-adv-x="569" d="M-45 1389h143l516 -1438h-139z" />
<glyph unicode="]" horiz-adv-x="796" d="M109 10v76q201 -10 360 -10h76v1243l-217 -2q-147 -4 -219 -4v71h69q123 0 246 7q160 4 244 4v-1395q-139 0 -279 6q-188 4 -280 4z" />
<glyph unicode="^" horiz-adv-x="1228" d="M84 504l463 930h131l467 -930h-148l-385 778l-381 -778h-147z" />
<glyph unicode="_" d="M0 -154h1024v-102h-1024v102z" />
<glyph unicode="`" horiz-adv-x="569" d="M14 1391h158l229 -283h-104z" />
<glyph unicode="a" d="M90 246q0 123 67.5 195.5t145.5 105.5q92 39 183.5 49t234.5 10v121q0 47 -9.5 81t-51.5 59.5t-128 25.5q-76 0 -142 -26.5t-152 -80.5l-58 129q119 57 194 77t165 20q143 0 223 -60q63 -47 79.5 -98t16.5 -113v-542q0 -61 33 -88q14 -10 25.5 -12.5t56.5 -2.5v-112 q-68 0 -99.5 3t-56.5 19q-37 23 -58.5 69t-21.5 79q0 16 -2 22l-6 2q-4 0 -6 -2q-86 -96 -164 -143t-186 -47q-80 0 -128 21.5t-83 58.5q-39 41 -55.5 92t-16.5 88zM229 256q0 -55 38 -108.5t136 -53.5q82 0 172.5 64.5t141.5 122.5v241q-103 0 -174.5 -8t-136.5 -35 q-80 -33 -128.5 -89t-48.5 -134z" />
<glyph unicode="b" d="M141 51v1325l135 74v-623q0 -6 4.5 -12t10.5 -6q10 0 14 8t6 10q45 80 99.5 129.5t156.5 49.5q72 0 151 -38t140.5 -149.5t61.5 -312.5q0 -84 -16.5 -184.5t-65.5 -180.5q-57 -96 -129 -124.5t-146 -28.5q-139 0 -233 135q-2 2 -18.5 30.5t-22.5 28.5q-16 0 -17 -20v-185 zM274 485q0 -96 32 -185t93.5 -144.5t145.5 -55.5q125 0 182 117t57 275q0 135 -43 267t-192 132q-76 0 -138.5 -51.5t-99.5 -143.5t-37 -211z" />
<glyph unicode="c" horiz-adv-x="909" d="M84 510q0 141 50 256t140.5 180.5t204.5 65.5q123 0 188.5 -43t127.5 -154l-115 -63q-68 145 -201 145q-143 0 -199.5 -125t-56.5 -293q0 -70 11.5 -136.5t48.5 -125.5q41 -68 97 -93.5t101 -25.5q90 0 133 45t68 109l141 -62q-47 -106 -139 -156t-215 -50q-98 0 -186 53 t-143.5 171t-55.5 302z" />
<glyph unicode="d" d="M98 477q0 213 80 371t275 158q115 0 175 -66t89 -127q2 -4 12 -4q14 0 14 18v555l136 76v-1407l-131 -74v185q0 10 -5.5 18t-11.5 2t-42 -61t-93 -94t-141 -39q-123 0 -203 72.5t-117 184t-37 232.5zM233 510q0 -201 66 -305.5t166 -104.5q145 0 212.5 121t67.5 279 q0 113 -36.5 202t-99 139t-136.5 50q-137 0 -188.5 -124t-51.5 -257z" />
<glyph unicode="e" horiz-adv-x="909" d="M68 469q0 106 18 198.5t70 174.5q106 168 301 168q141 0 217 -71t101.5 -177.5t31.5 -253.5h-602q0 -170 56 -288t206 -118q127 0 217 109l94 -74q-66 -80 -138.5 -114.5t-176.5 -34.5q-125 0 -214 68.5t-135 179t-46 233.5zM209 606h459q0 53 -6.5 101.5t-34.5 95.5 q-29 47 -77 70.5t-99 23.5q-96 0 -163 -70.5t-79 -220.5z" />
<glyph unicode="f" horiz-adv-x="681" d="M49 834v104h201v182q0 86 18.5 153.5t85.5 117.5q63 45 150 45q45 0 69.5 -4.5t77.5 -20.5v-127q-26 16 -61 26.5t-64 10.5q-84 0 -114.5 -56.5t-30.5 -148.5v-178h237v-104h-233v-834h-135v834h-201z" />
<glyph unicode="g" d="M102 532q0 158 48.5 262.5t127 154.5t171.5 50q115 0 181 -59t91 -123q2 -6 6 -10t10 -4q8 8 8 14v168h121v-823q0 -141 -27.5 -239.5t-117.5 -162t-268 -63.5q-141 0 -230 39v135h76q43 -37 81 -53.5t107 -16.5q242 0 242 271v168q0 16 -10 16q-4 0 -6 -2 q-27 -78 -102.5 -122t-164.5 -44q-106 0 -185 66.5t-119 170t-40 207.5zM238 578q0 -377 243 -377q74 0 132.5 46t91 124t32.5 170q0 158 -72.5 255t-185.5 97q-80 0 -135 -50t-80.5 -123t-25.5 -142z" />
<glyph unicode="h" d="M141 0v1374l140 70v-658q0 -12 6 -16h8q76 102 148.5 162.5t166.5 60.5q145 0 201.5 -78.5t56.5 -230.5v-684h-135v657q0 106 -25.5 168t-117.5 62q-84 0 -170 -76q-33 -29 -88.5 -91.5t-55.5 -74.5v-645h-135z" />
<glyph unicode="i" horiz-adv-x="569" d="M195 1176v204h180v-204h-180zM223 0v981h127v-981h-127z" />
<glyph unicode="j" horiz-adv-x="569" d="M25 -143q36 -25 66 -37.5t65 -12.5q55 0 69.5 40t14.5 110v1024h131v-1053q0 -233 -226 -233q-37 0 -62.5 4t-57.5 18v140zM213 1176v204h180v-204h-180z" />
<glyph unicode="k" d="M180 0v1370l133 76v-1446h-133zM348 483v29l424 469h160l-438 -473l452 -508h-176z" />
<glyph unicode="l" horiz-adv-x="569" d="M221 0v1370l127 66v-1436h-127z" />
<glyph unicode="m" horiz-adv-x="1593" d="M156 0v930l125 69v-213q0 -23 14 -22q27 23 55 65q57 78 114.5 121t153.5 43q82 0 129.5 -27.5t65.5 -64.5t35 -94l12 -41q4 -10 12 -2q14 14 33 45q53 82 120 134t185 52q129 0 179.5 -73.5t50.5 -210.5v-711h-129v694q0 88 -28 141.5t-109 53.5q-66 0 -136.5 -50.5 t-123 -112.5t-52.5 -77v-649h-129v680q0 94 -26.5 150.5t-108.5 56.5q-57 0 -105.5 -29t-91.5 -76t-116 -139v-643h-129z" />
<glyph unicode="n" d="M152 0v934l129 70v-222q0 -8 6 -13t10 -1q6 6 31 37q61 82 130.5 136t178.5 54q133 0 184 -80.5t51 -220.5v-694h-133v698q0 61 -6 99.5t-34.5 65t-88.5 26.5q-61 0 -109 -24.5t-98 -71.5q-80 -74 -118 -160v-633h-133z" />
<glyph unicode="o" d="M117 496q0 129 41 245.5t130 191.5t222 75q205 0 302 -154t97 -373q0 -499 -405 -499q-197 0 -292 150.5t-95 363.5zM252 461q0 -88 28.5 -171t90 -136.5t151.5 -53.5q135 0 193.5 112t58.5 261q0 164 -58.5 290t-203.5 126q-150 0 -205 -128t-55 -300z" />
<glyph unicode="p" d="M141 -354v1288l133 76v-199q0 -10 7 -10h4q6 6 43 63.5t98 99.5t149 42q84 0 162 -51.5t129.5 -166t51.5 -290.5q0 -233 -92.5 -370.5t-256.5 -137.5q-113 0 -180 69.5t-90 124.5q0 2 -2 4t-6 2q-10 0 -10 -14v-530h-140zM274 471q0 -82 34 -167t97.5 -142.5t147.5 -57.5 q125 0 178 116t53 253q0 416 -243 416q-68 0 -128.5 -44t-99.5 -138.5t-39 -235.5z" />
<glyph unicode="q" d="M98 485q0 123 32 242t108.5 199t201.5 80q72 0 122 -26t85 -67t82 -112h4q8 0 8 10v199l133 -76v-1288h-137v530l-4 10q-2 4 -8 4t-8 -6q-35 -82 -110 -138t-161 -56q-119 0 -197.5 72.5t-114.5 185t-36 237.5zM229 494q0 -150 52.5 -270t181.5 -120q72 0 136.5 50.5 t103 141.5t38.5 208q0 114 -35.5 202.5t-96 135.5t-132.5 47q-135 0 -191.5 -117t-56.5 -278z" />
<glyph unicode="r" horiz-adv-x="796" d="M172 0v930l133 69v-358q0 -12 6 -12q10 0 27.5 20.5t36.5 48.5q68 100 145.5 177t202.5 122v-229q-139 0 -230.5 -62.5t-183.5 -191.5v-514h-137z" />
<glyph unicode="s" horiz-adv-x="796" d="M76 92l53 117q131 -117 264 -117q98 0 153.5 46t55.5 120q0 49 -29.5 88t-76.5 60l-45 18q-166 63 -224 92q-49 20 -94 70.5t-45 146.5q0 127 84 202t215 75q76 0 140.5 -18.5t146.5 -57.5l-43 -121q-117 88 -254 88q-66 0 -115 -38t-49 -101q0 -49 21.5 -78t66.5 -52.5 t152 -64.5q96 -39 149 -68.5t85 -83t32 -141.5q0 -141 -93.5 -213.5t-236.5 -72.5q-94 0 -164.5 24.5t-148.5 79.5z" />
<glyph unicode="t" horiz-adv-x="681" d="M25 834v104h180v248l135 166v-414h217v-104h-217v-588q0 -72 15.5 -112t76.5 -40q45 0 102.5 23.5t98.5 52.5v-127q-45 -29 -110.5 -47.5t-116.5 -18.5q-106 0 -153.5 67t-47.5 177v613h-180z" />
<glyph unicode="u" d="M156 291v690h135v-680q0 -66 8 -107.5t41 -72.5t100 -31q59 0 128 51.5t120 113.5t51 79v647h131v-934l-125 -65v219q0 12 -8 12t-20 -14q-66 -102 -139.5 -157.5t-178.5 -55.5q-135 0 -189 80.5t-54 224.5z" />
<glyph unicode="v" horiz-adv-x="909" d="M57 981h146l213 -694q2 -10 17.5 -65.5t21.5 -61.5h10q12 12 25.5 66.5t17.5 64.5l211 690h129l-311 -981h-164z" />
<glyph unicode="w" horiz-adv-x="1366" d="M27 981h137l182 -616q20 -72 29 -103q12 -55 20 -76q8 -4 11 -4q4 0 12 4q6 16 33 142l8 43l157 610h140l162 -606q10 -35 24 -105l12 -55q6 -23 12.5 -30t14.5 -7t13 11.5t14 46.5q6 45 30 131l183 614h120l-299 -981h-141l-176 653q-14 61 -27 133q-2 16 -4 23.5 t-6 13.5h-10q-8 -6 -10 -15t-6 -28l-25 -129l-164 -651h-143z" />
<glyph unicode="x" d="M100 981h162l227 -352q18 -31 27 -31q6 0 20.5 25.5t20.5 35.5l207 322h151l-325 -481l336 -500h-160l-213 330q-10 14 -24.5 39.5t-20.5 25.5q-8 0 -26.5 -32.5t-24.5 -43.5l-205 -319h-148l330 494z" />
<glyph unicode="y" horiz-adv-x="909" d="M51 981h146l196 -541l41 -114q4 -12 10.5 -33t11.5 -31t11 -10t12 16.5t15 44.5q14 51 38 127l183 541h129l-350 -1012q-47 -137 -114 -217t-187 -80q-37 0 -65 7.5t-67 23.5v158h43q16 -29 36 -43.5t63 -14.5q74 0 109.5 55.5t66.5 153.5l18 54z" />
<glyph unicode="z" horiz-adv-x="909" d="M109 0v106l393 562q61 90 141 180v14h-520v119h678v-117l-426 -598q-61 -84 -88 -116q-23 -25 -23 -33t21 -8h516v-109h-692z" />
<glyph unicode="{" horiz-adv-x="681" d="M133 621v108q74 0 116 81t42 202v125q0 123 61.5 192.5t159.5 69.5h104v-105h-79q-59 0 -85 -55t-26 -139v-121q0 -94 -29.5 -159.5t-67.5 -100.5t-65 -43v-4q27 -8 65 -41t67.5 -99.5t29.5 -164.5v-105q0 -84 25.5 -139t85.5 -55h79v-105h-104q-98 0 -159.5 69.5 t-61.5 192.5v109q0 123 -42 205t-116 82z" />
<glyph unicode="|" horiz-adv-x="454" d="M160 -512v2048h135v-2048h-135z" />
<glyph unicode="}" horiz-adv-x="681" d="M66 -37v105h79q59 0 85 55t26 139v105q0 98 29.5 164.5t67.5 99.5t65 41v4q-27 8 -65 43t-67.5 100.5t-29.5 159.5v121q0 84 -25.5 139t-85.5 55h-79v105h104q98 0 159.5 -69.5t61.5 -192.5v-125q0 -121 42 -202t116 -81v-108q-74 0 -116 -82t-42 -205v-109 q0 -123 -61.5 -192.5t-159.5 -69.5h-104z" />
<glyph unicode="~" horiz-adv-x="1228" d="M133 461q53 88 112.5 136t145.5 48q66 0 117 -17.5t125 -52.5q66 -35 112 -52t93 -17q92 0 176 135l82 -86q-51 -86 -109.5 -133t-140.5 -47q-63 0 -117.5 18.5t-124.5 50.5q-66 35 -113 52.5t-100 17.5q-92 0 -176 -135z" />
<glyph unicode="&#xa1;" horiz-adv-x="796" d="M279 969q0 51 36.5 87t83.5 36t84 -36t37 -87q0 -49 -34.5 -85t-88.5 -36q-57 0 -87.5 38t-30.5 83zM317 -313l33 919h99l24 -919h-156z" />
<glyph unicode="&#xa2;" horiz-adv-x="1138" d="M199 498q0 152 51 268.5t140 181t204 64.5q88 0 143 -25l107 275h90l-123 -316q57 -47 96 -131l-112 -63q-25 43 -37 59l-264 -684q47 -29 106 -29q70 0 117 41t80 113l139 -62q-47 -106 -134 -156t-196 -50q-92 0 -157 28l-115 -295h-92l131 336q-88 59 -131 188.5 t-43 256.5zM334 467q0 -76 23.5 -152.5t66.5 -130.5l268 688q-34 25 -100 25q-141 0 -199.5 -133t-58.5 -297z" />
<glyph unicode="&#xa3;" horiz-adv-x="1138" d="M137 588v86h221q-43 141 -43 258q0 92 41 176t123 136t201 52q109 0 175.5 -42t127.5 -109l-63 -105q-53 70 -102.5 107t-137.5 37q-121 0 -174 -74t-53 -168q0 -66 20.5 -158t24.5 -110h317v-86h-303q12 -94 12 -142q0 -70 -10 -116.5t-37 -128.5q92 -55 165 -85 t138 -30q94 0 135 61.5t52 141.5h82q-6 -94 -20.5 -148.5t-61.5 -101.5q-39 -39 -96.5 -58.5t-120.5 -19.5q-70 0 -159 49t-157 109q-61 -80 -99 -106.5t-136 -53.5v160q117 25 154.5 98.5t37.5 202.5q0 55 -3 85t-13 83h-238z" />
<glyph unicode="&#xa4;" horiz-adv-x="1228" d="M57 182l201 197q-84 110 -84 260q0 74 23.5 141.5t60.5 114.5l-201 201l103 98l196 -197q115 80 260 80q76 0 143.5 -21.5t112.5 -58.5l201 197l98 -98l-196 -201q37 -49 58.5 -115.5t21.5 -140.5q0 -145 -80 -260l196 -197l-98 -102l-201 201q-47 -37 -114.5 -60.5 t-141.5 -23.5t-141 23.5t-119 60.5l-196 -201zM313 639q0 -84 40 -155.5t109.5 -113.5t153.5 -42t153 42t107.5 113.5t38.5 155.5q0 82 -38.5 152.5t-107.5 112.5t-153 42t-153.5 -42t-109.5 -112.5t-40 -152.5z" />
<glyph unicode="&#xa5;" horiz-adv-x="1138" d="M172 324v73h330v308l-6 12h-324v74h285l-285 569h152l206 -440q16 -33 23 -50q8 -25 18 -24q8 0 13.5 6t11.5 27l49 114l170 367h154l-285 -569h285v-74h-320l-4 -12v-308h324v-73h-324v-324h-143v324h-330z" />
<glyph unicode="&#xa6;" horiz-adv-x="454" d="M160 -358v716h135v-716h-135zM160 666v716h135v-716h-135z" />
<glyph unicode="&#xa7;" horiz-adv-x="1138" d="M152 727q0 80 50 146.5t158 78.5q-74 49 -99 97.5t-25 109.5q0 100 82.5 170t230.5 70q106 0 211.5 -56.5t159.5 -146.5l-109 -53q-59 74 -127 113.5t-152 39.5q-53 0 -110 -24.5t-57 -95.5q0 -57 38.5 -92t102.5 -62q92 -39 88 -37q113 -49 162 -72q141 -68 183 -135 t42 -141q0 -53 -20.5 -104.5t-96.5 -83.5q-16 -8 -42.5 -15.5t-35.5 -9.5v-4q16 -8 37 -24.5t33 -30.5q53 -59 53 -144q0 -141 -96 -201.5t-246 -60.5q-113 0 -218 59.5t-154 157.5l120 60q56 -115 130.5 -147t150.5 -32q104 0 145 46.5t41 97.5q0 61 -36.5 92t-96.5 55 l-170 70q-127 51 -227 123.5t-100 185.5zM256 768q0 -68 79 -124t216 -112q96 -39 128 -48t81 -9q68 0 96.5 40t28.5 85q0 37 -21.5 69.5t-79.5 69.5q-25 16 -103.5 56.5t-162.5 72t-131 31.5q-70 0 -100.5 -43t-30.5 -88z" />
<glyph unicode="&#xa8;" horiz-adv-x="569" d="M57 1128v209h133v-209h-133zM383 1128v209h131v-209h-131z" />
<glyph unicode="&#xa9;" horiz-adv-x="1638" d="M72 719q0 207 102 376t274.5 266t372.5 97q201 0 372 -97t272.5 -266t101.5 -376t-101.5 -377t-272.5 -268.5t-372 -98.5t-373 98.5t-274 268.5t-102 377zM190 719q0 -176 84 -322.5t228.5 -231.5t318.5 -85t317.5 85t226.5 231.5t83 322.5q0 174 -83 319.5t-226.5 230.5 t-317.5 85t-318.5 -85t-228.5 -230.5t-84 -319.5zM403 719q0 133 52.5 236.5t152 163t232.5 59.5q145 0 248.5 -81t123.5 -227h-125q-16 84 -82.5 136.5t-162.5 52.5q-143 0 -223 -94.5t-80 -241.5q0 -92 37.5 -172t107.5 -127t162 -47q96 0 161.5 55t79.5 143h127 q-30 -143 -130.5 -230t-237.5 -87q-131 0 -231.5 60.5t-156 166t-55.5 234.5z" />
<glyph unicode="&#xaa;" horiz-adv-x="819" d="M59 823q0 74 44 118t94 63q59 25 118.5 30.5t153.5 5.5v72q0 45 -21.5 72.5t-101.5 27.5q-49 0 -91 -16t-101 -49l-37 78q78 35 126 46t107 11q92 0 146 -35q41 -29 51 -59.5t10 -67.5v-325q0 -37 23 -54q8 -6 19 -7t34 -1v-67q-43 0 -64.5 2t-38.5 12q-23 12 -37 41 t-14 47q0 10 -2 14h-8q-53 -57 -104.5 -85.5t-122.5 -28.5q-51 0 -82 12t-56 35q-25 27 -35 56.5t-10 51.5zM150 829q0 -33 24.5 -64.5t87.5 -31.5q53 0 113.5 38t91.5 73v145q-66 0 -113 -5t-90 -21q-115 -43 -114 -134z" />
<glyph unicode="&#xab;" d="M145 483l265 318h145l-270 -318l262 -321h-135zM473 483l270 318h144l-279 -318l266 -321h-135z" />
<glyph unicode="&#xac;" horiz-adv-x="1228" d="M98 655v136h1032v-570h-135v434h-897z" />
<glyph unicode="&#xad;" horiz-adv-x="681" d="M80 471v113h524v-113h-524z" />
<glyph unicode="&#xae;" horiz-adv-x="1638" d="M72 719q0 207 102 376t274.5 266t372.5 97q201 0 372 -97t272.5 -266t101.5 -376t-101.5 -377t-272.5 -268.5t-372 -98.5t-373 98.5t-274 268.5t-102 377zM190 719q0 -176 84 -322.5t228.5 -231.5t318.5 -85t317.5 85t226.5 231.5t83 322.5q0 174 -83 319.5t-226.5 230.5 t-317.5 85t-318.5 -85t-228.5 -230.5t-84 -319.5zM526 299v852h320q291 0 291 -213q0 -76 -45 -133t-119 -72v-8q53 -8 78.5 -29.5t36 -53.5t20.5 -97q4 -37 8 -51q16 -133 41 -195h-131q-25 96 -29 152q-2 18 -6 58t-12 67.5t-23 46.5q-41 57 -127 57h-180v-381h-123z M649 782h201q84 0 122 39t38 97q0 135 -160 135h-201v-271z" />
<glyph unicode="&#xaf;" horiz-adv-x="569" d="M-18 1186v92h606v-92h-606z" />
<glyph unicode="&#xb0;" horiz-adv-x="819" d="M109 1159q0 80 40.5 148.5t110.5 109.5t152 41q80 0 148.5 -41t109.5 -109.5t41 -148.5q0 -82 -41 -151.5t-109.5 -110.5t-148.5 -41q-82 0 -152 41t-110.5 110.5t-40.5 151.5zM195 1159q0 -92 62 -158.5t155 -66.5q88 0 150.5 66.5t62.5 158.5q0 90 -62.5 155.5 t-150.5 65.5q-90 0 -153.5 -65.5t-63.5 -155.5z" />
<glyph unicode="&#xb1;" horiz-adv-x="1228" d="M98 -49v135h1032v-135h-1032zM98 559v135h449v367h135v-367h448v-135h-448v-366h-135v366h-449z" />
<glyph unicode="&#xb2;" horiz-adv-x="819" d="M92 510q8 84 37 138t71 93t128 103q25 16 37 26q84 66 114.5 104t30.5 87q0 57 -40 97t-114 40q-82 0 -122.5 -45t-59.5 -94l-76 51q35 66 91.5 118t168.5 52q129 0 196 -62.5t67 -150.5q0 -63 -32 -113.5t-72 -84t-116 -85.5q-12 -10 -63 -47t-87 -74.5t-42 -70.5h414 v-82h-531z" />
<glyph unicode="&#xb3;" horiz-adv-x="819" d="M74 485v64q108 2 183 12t151 47q55 29 93 71t38 93q0 61 -40 92t-110 31q-31 0 -61.5 -7t-59.5 -18l-24 60q10 4 21 8l22 8q98 39 152.5 76t54.5 102q0 37 -32 61.5t-85 24.5q-47 0 -93 -24.5t-106 -69.5l-61 55q139 111 258 111q123 0 176 -48t53 -112q0 -61 -38 -94 t-77.5 -51.5t-54.5 -24.5v-2q0 -6 21 -6q94 0 146 -45t52 -121q0 -90 -60.5 -149.5t-117.5 -83.5q-82 -39 -180 -49.5t-221 -10.5z" />
<glyph unicode="&#xb4;" horiz-adv-x="569" d="M145 1108l228 283h157l-280 -283h-105z" />
<glyph unicode="&#xb6;" horiz-adv-x="1228" d="M98 1028q0 195 125 300.5t342 105.5h488v-1823h-135v1704h-254v-1704h-136v1016q-125 0 -222 53t-152.5 145.5t-55.5 202.5z" />
<glyph unicode="&#xb7;" horiz-adv-x="569" d="M160 623q0 51 35.5 88t87.5 37q53 0 90 -38t37 -87q0 -50 -37 -86.5t-90 -36.5q-51 0 -87 35.5t-36 87.5z" />
<glyph unicode="&#xb8;" horiz-adv-x="569" d="M47 -385l31 61q39 -14 69.5 -22t61.5 -8q61 0 99 27.5t38 66.5q0 33 -28.5 57.5t-75.5 24.5q-33 0 -90 -17l-31 27l123 168h78l-95 -121q61 12 76 12q57 0 108.5 -37.5t51.5 -111.5q0 -72 -59.5 -120t-155.5 -48q-68 0 -107 9t-94 32z" />
<glyph unicode="&#xb9;" horiz-adv-x="819" d="M117 1184v78h332v-672h200v-80h-499v80h192v594h-225z" />
<glyph unicode="&#xba;" horiz-adv-x="819" d="M152 975q0 123 64.5 215t191.5 92q133 0 196.5 -92t63.5 -223q-1 -301 -265 -301q-127 0 -189 91t-62 218zM240 954q0 -84 45 -150.5t131 -66.5q88 0 126 66.5t38 157.5q0 98 -38 173.5t-132 75.5q-98 0 -134 -76.5t-36 -179.5z" />
<glyph unicode="&#xbb;" d="M137 162l275 323l-265 316h134l262 -318l-269 -321h-137zM475 162l268 317l-266 322h137l265 -322l-265 -317h-139z" />
<glyph unicode="&#xbc;" horiz-adv-x="1638" d="M31 1204v78h331v-672h201v-80h-500v80h193v594h-225zM352 -31l916 1317h106l-911 -1317h-111zM954 215v113l365 440h182v-471h109v-82h-109v-215h-106v215h-441zM1083 307q0 -6 3.5 -8t9.5 -2h299v393q-1 12 -9 12t-14 -10l-285 -375q-4 -8 -4 -10z" />
<glyph unicode="&#xbd;" horiz-adv-x="1638" d="M31 1204v78h331v-672h201v-80h-500v80h193v594h-225zM352 -31l916 1317h106l-911 -1317h-111zM1077 0q8 84 37 138.5t71 93t128 102.5q25 16 37 26q84 66 114.5 104t30.5 87q0 57 -40 97t-114 40q-82 0 -122.5 -45t-59.5 -94l-76 51q35 66 91.5 118t168.5 52 q129 0 196 -62.5t67 -150.5q0 -63 -32 -113.5t-72 -84t-116 -85.5q-12 -10 -63 -47t-87 -74.5t-42 -70.5h414v-82h-531z" />
<glyph unicode="&#xbe;" horiz-adv-x="1638" d="M33 485v64q108 2 183 12t151 47q55 29 93 71t38 93q0 61 -40 92t-110 31q-31 0 -61.5 -7t-59.5 -18l-24 60q10 4 21.5 8t21.5 8q98 39 152.5 76t54.5 102q0 37 -32 61.5t-85 24.5q-47 0 -93 -24.5t-106 -69.5l-61 55q139 111 258 111q123 0 176 -48t53 -112 q0 -61 -38 -94t-77.5 -51.5t-54.5 -24.5v-2q0 -6 21 -6q94 0 146 -45t52 -121q0 -90 -60 -149.5t-118 -83.5q-82 -39 -180 -49.5t-221 -10.5zM352 -31l916 1317h106l-911 -1317h-111zM954 215v113l365 440h182v-471h109v-82h-109v-215h-106v215h-441zM1083 307q0 -6 3.5 -8 t9.5 -2h299v393q-1 12 -9 12t-14 -10l-285 -375q-4 -8 -4 -10z" />
<glyph unicode="&#xbf;" d="M186 -8q0 94 44 160.5t126 146.5q63 61 90 96t38.5 83t11.5 136h116v-88q0 -86 -32.5 -146.5t-92.5 -121.5l-65 -68q-49 -51 -72.5 -97t-23.5 -105q0 -78 50 -131.5t159 -53.5q68 0 133 33t116 152l131 -49q-41 -88 -137 -170t-262 -82q-106 0 -180 43t-112 113.5 t-38 148.5zM434 983q0 51 37 86t86 35q53 0 89 -36t36 -85t-36 -85t-89 -36q-49 0 -86 35t-37 86z" />
<glyph unicode="&#xc0;" horiz-adv-x="1366" d="M86 0l528 1380h144l524 -1380h-154l-122 332h-646l-122 -332h-152zM401 446h566l-271 738q-2 6 -10 6q-4 0 -10 -10zM413 1770h158l229 -283h-104z" />
<glyph unicode="&#xc1;" horiz-adv-x="1366" d="M86 0l528 1380h144l524 -1380h-154l-122 332h-646l-122 -332h-152zM401 446h566l-271 738q-2 6 -10 6q-4 0 -10 -10zM544 1487l228 283h157l-280 -283h-105z" />
<glyph unicode="&#xc2;" horiz-adv-x="1366" d="M86 0l528 1380h144l524 -1380h-154l-122 332h-646l-122 -332h-152zM383 1487l233 283h137l232 -283h-133l-168 207l-168 -207h-133zM401 446h566l-271 738q-2 6 -10 6q-4 0 -10 -10z" />
<glyph unicode="&#xc3;" horiz-adv-x="1366" d="M86 0l528 1380h144l524 -1380h-154l-122 332h-646l-122 -332h-152zM354 1509q8 78 54 138.5t126 60.5q33 0 56.5 -8t113.5 -45q47 -20 74 -29.5t45 -9.5q49 0 67.5 31.5t24.5 70.5h80q-35 -198 -170 -198q-35 0 -64.5 9t-117.5 46q-47 20 -72 28.5t-43 8.5 q-74 0 -100 -103h-74zM401 446h566l-271 738q-2 6 -10 6q-4 0 -10 -10z" />
<glyph unicode="&#xc4;" horiz-adv-x="1366" d="M86 0l528 1380h144l524 -1380h-154l-122 332h-646l-122 -332h-152zM401 446h566l-271 738q-2 6 -10 6q-4 0 -10 -10zM456 1507v209h133v-209h-133zM782 1507v209h131v-209h-131z" />
<glyph unicode="&#xc5;" horiz-adv-x="1366" d="M86 0l528 1380h144l524 -1380h-154l-122 332h-646l-122 -332h-152zM401 446h566l-271 738q-2 6 -10 6q-4 0 -10 -10zM534 1620q0 61 44 105.5t108 44.5q61 0 105 -44t44 -106q0 -63 -44 -107t-105 -44q-63 0 -107.5 44t-44.5 107zM604 1620q0 -35 24.5 -59.5t57.5 -24.5 t56.5 24.5t23.5 59.5t-24 59.5t-56 24.5q-33 0 -57.5 -24.5t-24.5 -59.5z" />
<glyph unicode="&#xc6;" horiz-adv-x="1933" d="M35 0l698 1360h1034v-119h-700v-463h598v-125h-598v-530h721v-123h-864v389h-537l-194 -389h-158zM442 502h478v747q0 19 -13.5 27t-34.5 8q-23 0 -35 -10t-22 -33z" />
<glyph unicode="&#xc7;" horiz-adv-x="1251" d="M164 612q0 147 21.5 283.5t86.5 253.5q86 154 196 197t214 43q160 0 265.5 -104.5t123.5 -274.5l-123 -41q-12 137 -84.5 222t-199.5 85q-152 0 -233 -117t-105.5 -253t-24.5 -242q0 -203 64.5 -400.5t289.5 -197.5q143 0 216 97t94 234l122 -37q-10 -78 -48 -167 t-123 -160.5t-222 -79.5l-57 -74q61 12 76 12q57 0 108 -37.5t51 -111.5q0 -72 -59 -120t-156 -48q-68 0 -106.5 9t-93.5 32l30 61q39 -14 70 -22t61 -8q61 0 99.5 27.5t38.5 66.5q0 33 -29 57.5t-76 24.5q-33 0 -90 -17l-31 27l88 121q-82 2 -169 41t-160 143 q-125 180 -125 475z" />
<glyph unicode="&#xc8;" horiz-adv-x="1366" d="M295 0v1360h858v-119h-717v-463h617v-125h-617v-530h740v-123h-881zM413 1770h158l229 -283h-104z" />
<glyph unicode="&#xc9;" horiz-adv-x="1366" d="M295 0v1360h858v-119h-717v-463h617v-125h-617v-530h740v-123h-881zM544 1487l228 283h157l-280 -283h-105z" />
<glyph unicode="&#xca;" horiz-adv-x="1366" d="M295 0v1360h858v-119h-717v-463h617v-125h-617v-530h740v-123h-881zM383 1487l233 283h137l232 -283h-133l-168 207l-168 -207h-133z" />
<glyph unicode="&#xcb;" horiz-adv-x="1366" d="M295 0v1360h858v-119h-717v-463h617v-125h-617v-530h740v-123h-881zM456 1507v209h133v-209h-133zM782 1507v209h131v-209h-131z" />
<glyph unicode="&#xcc;" horiz-adv-x="796" d="M129 1770h158l229 -283h-104zM176 0v80h150v1200h-150v80h442v-80h-149v-1200h149v-80h-442z" />
<glyph unicode="&#xcd;" horiz-adv-x="796" d="M176 0v80h150v1200h-150v80h442v-80h-149v-1200h149v-80h-442zM260 1487l228 283h157l-280 -283h-105z" />
<glyph unicode="&#xce;" horiz-adv-x="796" d="M99 1487l233 283h137l232 -283h-133l-168 207l-168 -207h-133zM176 0v80h150v1200h-150v80h442v-80h-149v-1200h149v-80h-442z" />
<glyph unicode="&#xcf;" horiz-adv-x="796" d="M172 1507v209h133v-209h-133zM176 0v80h150v1200h-150v80h442v-80h-149v-1200h149v-80h-442zM498 1507v209h131v-209h-131z" />
<glyph unicode="&#xd0;" horiz-adv-x="1366" d="M84 653v119h186v588h353q170 0 289.5 -46t211.5 -194q57 -94 79 -216t22 -234q0 -127 -44 -267.5t-126 -236.5q-90 -104 -202 -135t-271 -31h-312v653h-186zM412 123h192q150 0 243 40t159 159q45 80 63 186t18 172q0 367 -198 496q-51 33 -98.5 46t-121 16t-257.5 3 v-469h307v-119h-307v-530z" />
<glyph unicode="&#xd1;" horiz-adv-x="1478" d="M287 0v1360h241l357 -862q29 -66 55 -146l55 -147q4 -10 12.5 -32.5t16.5 -35t18 -12.5q6 0 11.5 8t5.5 23v1204h135v-1360h-248l-377 924q-47 115 -86 219l-14 39q-8 23 -15.5 38t-15.5 15t-12 -6t-4 -12v-1217h-135zM410 1509q8 78 54 138.5t126 60.5q33 0 56.5 -8 t113.5 -45q47 -20 74 -29.5t45 -9.5q49 0 67.5 31.5t24.5 70.5h80q-35 -198 -170 -198q-35 0 -64.5 9t-117.5 46q-47 20 -72 28.5t-43 8.5q-74 0 -100 -103h-74z" />
<glyph unicode="&#xd2;" horiz-adv-x="1251" d="M145 629q0 154 15.5 275.5t70.5 238.5q45 96 139.5 171t245.5 75q240 0 365 -185q61 -92 93 -235.5t32 -300.5q0 -273 -86 -461q-63 -141 -166.5 -198.5t-216.5 -57.5q-80 0 -167 25.5t-171 119.5q-86 98 -120 241.5t-34 291.5zM289 653q0 -266 71 -409q47 -92 115 -135 t146 -43q92 0 160.5 49t109.5 137q47 98 59.5 195.5t12.5 220.5q0 229 -68 417.5t-268 188.5q-121 0 -184.5 -69.5t-94.5 -145.5q-59 -145 -59 -406zM356 1770h158l229 -283h-104z" />
<glyph unicode="&#xd3;" horiz-adv-x="1251" d="M145 629q0 154 15.5 275.5t70.5 238.5q45 96 139.5 171t245.5 75q240 0 365 -185q61 -92 93 -235.5t32 -300.5q0 -273 -86 -461q-63 -141 -166.5 -198.5t-216.5 -57.5q-80 0 -167 25.5t-171 119.5q-86 98 -120 241.5t-34 291.5zM289 653q0 -266 71 -409q47 -92 115 -135 t146 -43q92 0 160.5 49t109.5 137q47 98 59.5 195.5t12.5 220.5q0 229 -68 417.5t-268 188.5q-121 0 -184.5 -69.5t-94.5 -145.5q-59 -145 -59 -406zM487 1487l228 283h157l-280 -283h-105z" />
<glyph unicode="&#xd4;" horiz-adv-x="1251" d="M145 629q0 154 15.5 275.5t70.5 238.5q45 96 139.5 171t245.5 75q240 0 365 -185q61 -92 93 -235.5t32 -300.5q0 -273 -86 -461q-63 -141 -166.5 -198.5t-216.5 -57.5q-80 0 -167 25.5t-171 119.5q-86 98 -120 241.5t-34 291.5zM289 653q0 -266 71 -409q47 -92 115 -135 t146 -43q92 0 160.5 49t109.5 137q47 98 59.5 195.5t12.5 220.5q0 229 -68 417.5t-268 188.5q-121 0 -184.5 -69.5t-94.5 -145.5q-59 -145 -59 -406zM326 1487l233 283h137l232 -283h-133l-168 207l-168 -207h-133z" />
<glyph unicode="&#xd5;" horiz-adv-x="1251" d="M145 629q0 154 15.5 275.5t70.5 238.5q45 96 139.5 171t245.5 75q240 0 365 -185q61 -92 93 -235.5t32 -300.5q0 -273 -86 -461q-63 -141 -166.5 -198.5t-216.5 -57.5q-80 0 -167 25.5t-171 119.5q-86 98 -120 241.5t-34 291.5zM289 653q0 -266 71 -409q47 -92 115 -135 t146 -43q92 0 160.5 49t109.5 137q47 98 59.5 195.5t12.5 220.5q0 229 -68 417.5t-268 188.5q-121 0 -184.5 -69.5t-94.5 -145.5q-59 -145 -59 -406zM297 1509q8 78 54 138.5t126 60.5q33 0 56.5 -8t113.5 -45q47 -20 74 -29.5t45 -9.5q49 0 67.5 31.5t24.5 70.5h80 q-35 -198 -170 -198q-35 0 -64.5 9t-117.5 46q-47 20 -72 28.5t-43 8.5q-74 0 -100 -103h-74z" />
<glyph unicode="&#xd6;" horiz-adv-x="1251" d="M145 629q0 154 15.5 275.5t70.5 238.5q45 96 139.5 171t245.5 75q240 0 365 -185q61 -92 93 -235.5t32 -300.5q0 -273 -86 -461q-63 -141 -166.5 -198.5t-216.5 -57.5q-80 0 -167 25.5t-171 119.5q-86 98 -120 241.5t-34 291.5zM289 653q0 -266 71 -409q47 -92 115 -135 t146 -43q92 0 160.5 49t109.5 137q47 98 59.5 195.5t12.5 220.5q0 229 -68 417.5t-268 188.5q-121 0 -184.5 -69.5t-94.5 -145.5q-59 -145 -59 -406zM399 1507v209h133v-209h-133zM725 1507v209h131v-209h-131z" />
<glyph unicode="&#xd7;" horiz-adv-x="1228" d="M137 135l383 383l-383 383l94 94l381 -385l385 385l95 -94l-385 -383l385 -383l-95 -94l-385 385l-381 -385z" />
<glyph unicode="&#xd8;" horiz-adv-x="1251" d="M145 629q0 154 15.5 275.5t70.5 238.5q45 96 139.5 171t245.5 75q156 0 256 -74l115 272h80l-135 -323q22 -23 49 -60q61 -92 93 -235.5t32 -300.5q0 -272 -86 -461q-63 -141 -166.5 -198.5t-216.5 -57.5q-133 0 -229 57l-140 -334h-82l158 379q-29 25 -45 43 q-86 98 -120 241.5t-34 291.5zM289 653q0 -266 71 -409q20 -39 39 -62l422 1010q-75 82 -194 82q-121 0 -184.5 -69.5t-94.5 -145.5q-59 -145 -59 -406zM457 125q68 -59 164 -59q92 0 160.5 49t109.5 137q47 98 59.5 195.5t12.5 220.5q0 297 -91 452z" />
<glyph unicode="&#xd9;" horiz-adv-x="1478" d="M291 401v959h143v-973q0 -127 53.5 -197.5t119 -95t114.5 -24.5q154 0 242 90t88 248v952h137v-954q0 -219 -123 -337t-342 -118q-203 0 -317.5 125t-114.5 325zM469 1770h158l229 -283h-104z" />
<glyph unicode="&#xda;" horiz-adv-x="1478" d="M291 401v959h143v-973q0 -127 53.5 -197.5t119 -95t114.5 -24.5q154 0 242 90t88 248v952h137v-954q0 -219 -123 -337t-342 -118q-203 0 -317.5 125t-114.5 325zM600 1487l228 283h157l-280 -283h-105z" />
<glyph unicode="&#xdb;" horiz-adv-x="1478" d="M291 401v959h143v-973q0 -127 53.5 -197.5t119 -95t114.5 -24.5q154 0 242 90t88 248v952h137v-954q0 -219 -123 -337t-342 -118q-203 0 -317.5 125t-114.5 325zM439 1487l233 283h137l232 -283h-133l-168 207l-168 -207h-133z" />
<glyph unicode="&#xdc;" horiz-adv-x="1478" d="M291 401v959h143v-973q0 -127 53.5 -197.5t119 -95t114.5 -24.5q154 0 242 90t88 248v952h137v-954q0 -219 -123 -337t-342 -118q-203 0 -317.5 125t-114.5 325zM512 1507v209h133v-209h-133zM838 1507v209h131v-209h-131z" />
<glyph unicode="&#xdd;" horiz-adv-x="1366" d="M117 1360h157l361 -625q8 -14 18.5 -34.5t18.5 -29.5t18 -9q8 0 19.5 16t19.5 31.5t12 23.5q23 47 39 76l314 551h157l-491 -840v-520h-144v520zM544 1487l228 283h157l-280 -283h-105z" />
<glyph unicode="&#xde;" horiz-adv-x="1366" d="M303 0v1360h143v-250h252q121 0 208 -23.5t149 -72.5q66 -53 100.5 -131t34.5 -174q0 -104 -38 -181t-87 -122q-68 -61 -145.5 -77t-194.5 -16h-279v-313h-143zM446 432l84 -2q92 0 186.5 3t110.5 5q119 14 170.5 88t51.5 172q0 166 -93.5 229.5t-267.5 63.5h-242v-559z " />
<glyph unicode="&#xdf;" horiz-adv-x="1138" d="M186 0v981q0 199 87 330t276 131q164 0 262 -94.5t98 -257.5q0 -137 -58 -201t-142 -101q-16 -6 -17 -16q0 -12 25 -16q88 -12 149.5 -72.5t93 -145.5t31.5 -171q0 -168 -93 -279t-255 -111q-33 0 -59.5 6.5t-71.5 22.5v123q33 -18 60.5 -24.5t66.5 -6.5q113 0 165 75 t52 192q0 326 -319 342v118q115 -2 181 68t66 190q0 115 -62.5 179.5t-174.5 64.5q-125 0 -175 -98.5t-50 -237.5v-991h-136z" />
<glyph unicode="&#xe0;" d="M90 246q0 123 67.5 195.5t145.5 105.5q92 39 183.5 49t234.5 10v121q0 47 -9.5 81t-51.5 59.5t-128 25.5q-76 0 -142 -26.5t-152 -80.5l-58 129q119 57 194 77t165 20q143 0 223 -60q63 -47 79.5 -98t16.5 -113v-542q0 -61 33 -88q14 -10 25.5 -12.5t56.5 -2.5v-112 q-68 0 -99.5 3t-56.5 19q-37 23 -58.5 69t-21.5 79q0 16 -2 22l-6 2q-4 0 -6 -2q-86 -96 -164 -143t-186 -47q-80 0 -128 21.5t-83 58.5q-39 41 -55.5 92t-16.5 88zM229 256q0 -55 38 -108.5t136 -53.5q82 0 172.5 64.5t141.5 122.5v241q-103 0 -174.5 -8t-136.5 -35 q-80 -33 -128.5 -89t-48.5 -134zM241 1391h158l229 -283h-104z" />
<glyph unicode="&#xe1;" d="M90 246q0 123 67.5 195.5t145.5 105.5q92 39 183.5 49t234.5 10v121q0 47 -9.5 81t-51.5 59.5t-128 25.5q-76 0 -142 -26.5t-152 -80.5l-58 129q119 57 194 77t165 20q143 0 223 -60q63 -47 79.5 -98t16.5 -113v-542q0 -61 33 -88q14 -10 25.5 -12.5t56.5 -2.5v-112 q-68 0 -99.5 3t-56.5 19q-37 23 -58.5 69t-21.5 79q0 16 -2 22l-6 2q-4 0 -6 -2q-86 -96 -164 -143t-186 -47q-80 0 -128 21.5t-83 58.5q-39 41 -55.5 92t-16.5 88zM229 256q0 -55 38 -108.5t136 -53.5q82 0 172.5 64.5t141.5 122.5v241q-103 0 -174.5 -8t-136.5 -35 q-80 -33 -128.5 -89t-48.5 -134zM372 1108l228 283h157l-280 -283h-105z" />
<glyph unicode="&#xe2;" d="M90 246q0 123 67.5 195.5t145.5 105.5q92 39 183.5 49t234.5 10v121q0 47 -9.5 81t-51.5 59.5t-128 25.5q-76 0 -142 -26.5t-152 -80.5l-58 129q119 57 194 77t165 20q143 0 223 -60q63 -47 79.5 -98t16.5 -113v-542q0 -61 33 -88q14 -10 25.5 -12.5t56.5 -2.5v-112 q-68 0 -99.5 3t-56.5 19q-37 23 -58.5 69t-21.5 79q0 16 -2 22l-6 2q-4 0 -6 -2q-86 -96 -164 -143t-186 -47q-80 0 -128 21.5t-83 58.5q-39 41 -55.5 92t-16.5 88zM211 1108l233 283h137l232 -283h-133l-168 207l-168 -207h-133zM229 256q0 -55 38 -108.5t136 -53.5 q82 0 172.5 64.5t141.5 122.5v241q-103 0 -174.5 -8t-136.5 -35q-80 -33 -128.5 -89t-48.5 -134z" />
<glyph unicode="&#xe3;" d="M90 246q0 123 67.5 195.5t145.5 105.5q92 39 183.5 49t234.5 10v121q0 47 -9.5 81t-51.5 59.5t-128 25.5q-76 0 -142 -26.5t-152 -80.5l-58 129q119 57 194 77t165 20q143 0 223 -60q63 -47 79.5 -98t16.5 -113v-542q0 -61 33 -88q14 -10 25.5 -12.5t56.5 -2.5v-112 q-68 0 -99.5 3t-56.5 19q-37 23 -58.5 69t-21.5 79q0 16 -2 22l-6 2q-4 0 -6 -2q-86 -96 -164 -143t-186 -47q-80 0 -128 21.5t-83 58.5q-39 41 -55.5 92t-16.5 88zM182 1130q8 78 54 138.5t126 60.5q33 0 56.5 -8t113.5 -45q47 -20 74 -29.5t45 -9.5q49 0 67.5 31.5 t24.5 70.5h80q-35 -198 -170 -198q-35 0 -64.5 9t-117.5 46q-47 20 -72 28.5t-43 8.5q-74 0 -100 -103h-74zM229 256q0 -55 38 -108.5t136 -53.5q82 0 172.5 64.5t141.5 122.5v241q-103 0 -174.5 -8t-136.5 -35q-80 -33 -128.5 -89t-48.5 -134z" />
<glyph unicode="&#xe4;" d="M90 246q0 123 67.5 195.5t145.5 105.5q92 39 183.5 49t234.5 10v121q0 47 -9.5 81t-51.5 59.5t-128 25.5q-76 0 -142 -26.5t-152 -80.5l-58 129q119 57 194 77t165 20q143 0 223 -60q63 -47 79.5 -98t16.5 -113v-542q0 -61 33 -88q14 -10 25.5 -12.5t56.5 -2.5v-112 q-68 0 -99.5 3t-56.5 19q-37 23 -58.5 69t-21.5 79q0 16 -2 22l-6 2q-4 0 -6 -2q-86 -96 -164 -143t-186 -47q-80 0 -128 21.5t-83 58.5q-39 41 -55.5 92t-16.5 88zM229 256q0 -55 38 -108.5t136 -53.5q82 0 172.5 64.5t141.5 122.5v241q-103 0 -174.5 -8t-136.5 -35 q-80 -33 -128.5 -89t-48.5 -134zM284 1128v209h133v-209h-133zM610 1128v209h131v-209h-131z" />
<glyph unicode="&#xe5;" d="M90 246q0 123 67.5 195.5t145.5 105.5q92 39 183.5 49t234.5 10v121q0 47 -9.5 81t-51.5 59.5t-128 25.5q-76 0 -142 -26.5t-152 -80.5l-58 129q119 57 194 77t165 20q143 0 223 -60q63 -47 79.5 -98t16.5 -113v-542q0 -61 33 -88q14 -10 25.5 -12.5t56.5 -2.5v-112 q-68 0 -99.5 3t-56.5 19q-37 23 -58.5 69t-21.5 79q0 16 -2 22l-6 2q-4 0 -6 -2q-86 -96 -164 -143t-186 -47q-80 0 -128 21.5t-83 58.5q-39 41 -55.5 92t-16.5 88zM229 256q0 -55 38 -108.5t136 -53.5q82 0 172.5 64.5t141.5 122.5v241q-103 0 -174.5 -8t-136.5 -35 q-80 -33 -128.5 -89t-48.5 -134zM362 1241q0 61 44 105.5t108 44.5q61 0 105 -44t44 -106q0 -63 -44 -107t-105 -44q-63 0 -107.5 44t-44.5 107zM432 1241q0 -35 24.5 -59.5t57.5 -24.5t56.5 24.5t23.5 59.5t-24 59.5t-56 24.5q-33 0 -57.5 -24.5t-24.5 -59.5z" />
<glyph unicode="&#xe6;" horiz-adv-x="1593" d="M113 236q0 215 187 285.5t448 70.5v117q0 90 -61.5 130t-156.5 40q-72 0 -135 -20.5t-135 -61.5l-51 108q109 51 170 71.5t147 20.5q117 0 179.5 -31.5t101.5 -72.5q8 -10 18.5 -25.5t16.5 -15.5t10 4t8 14q14 29 49 56.5t80 46.5q47 18 115 18q209 0 290 -138t81 -366 h-603q0 -170 53.5 -284.5t200.5 -114.5q72 0 122 24.5t106 80.5l92 -74q-53 -63 -125 -106.5t-199 -43.5q-100 0 -177 39t-118 107q-14 27 -23 39t-18 12q-4 0 -38 -31l-46 -37q-68 -53 -137 -89t-159 -36q-125 0 -209 69t-84 194zM256 244q0 -160 176 -160q84 0 170 55.5 t141 106.5v262q-487 0 -487 -264zM877 588h460q0 286 -223 286q-90 0 -140 -45t-68.5 -104t-28.5 -137z" />
<glyph unicode="&#xe7;" horiz-adv-x="909" d="M84 510q0 141 50 256t140.5 180.5t204.5 65.5q123 0 188.5 -43t127.5 -154l-115 -63q-68 145 -201 145q-143 0 -199.5 -125t-56.5 -293q0 -70 11.5 -136.5t48.5 -125.5q41 -68 97 -93.5t101 -25.5q90 0 133 45t68 109l141 -62q-76 -176 -284 -202l-86 -109q61 12 75 12 q57 0 108.5 -37.5t51.5 -111.5q0 -72 -59.5 -120t-155.5 -48q-68 0 -106.5 9t-94.5 32l31 61q39 -14 69.5 -22t61.5 -8q61 0 99 27.5t38 66.5q0 33 -28.5 57.5t-75.5 24.5q-33 0 -90 -17l-31 27l113 154q-96 2 -181 55t-139.5 171t-54.5 298z" />
<glyph unicode="&#xe8;" horiz-adv-x="909" d="M68 469q0 106 18 198.5t70 174.5q106 168 301 168q141 0 217 -71t101.5 -177.5t31.5 -253.5h-602q0 -170 56 -288t206 -118q127 0 217 109l94 -74q-66 -80 -138.5 -114.5t-176.5 -34.5q-125 0 -214 68.5t-135 179t-46 233.5zM184 1391h158l229 -283h-104zM209 606h459 q0 53 -6.5 101.5t-34.5 95.5q-29 47 -77 70.5t-99 23.5q-96 0 -163 -70.5t-79 -220.5z" />
<glyph unicode="&#xe9;" horiz-adv-x="909" d="M68 469q0 106 18 198.5t70 174.5q106 168 301 168q141 0 217 -71t101.5 -177.5t31.5 -253.5h-602q0 -170 56 -288t206 -118q127 0 217 109l94 -74q-66 -80 -138.5 -114.5t-176.5 -34.5q-125 0 -214 68.5t-135 179t-46 233.5zM209 606h459q0 53 -6.5 101.5t-34.5 95.5 q-29 47 -77 70.5t-99 23.5q-96 0 -163 -70.5t-79 -220.5zM315 1108l228 283h157l-280 -283h-105z" />
<glyph unicode="&#xea;" horiz-adv-x="909" d="M68 469q0 106 18 198.5t70 174.5q106 168 301 168q141 0 217 -71t101.5 -177.5t31.5 -253.5h-602q0 -170 56 -288t206 -118q127 0 217 109l94 -74q-66 -80 -138.5 -114.5t-176.5 -34.5q-125 0 -214 68.5t-135 179t-46 233.5zM154 1108l233 283h137l232 -283h-133 l-168 207l-168 -207h-133zM209 606h459q0 53 -6.5 101.5t-34.5 95.5q-29 47 -77 70.5t-99 23.5q-96 0 -163 -70.5t-79 -220.5z" />
<glyph unicode="&#xeb;" horiz-adv-x="909" d="M68 469q0 106 18 198.5t70 174.5q106 168 301 168q141 0 217 -71t101.5 -177.5t31.5 -253.5h-602q0 -170 56 -288t206 -118q127 0 217 109l94 -74q-66 -80 -138.5 -114.5t-176.5 -34.5q-125 0 -214 68.5t-135 179t-46 233.5zM209 606h459q0 53 -6.5 101.5t-34.5 95.5 q-29 47 -77 70.5t-99 23.5q-96 0 -163 -70.5t-79 -220.5zM227 1128v209h133v-209h-133zM553 1128v209h131v-209h-131z" />
<glyph unicode="&#xec;" horiz-adv-x="569" d="M14 1391h158l229 -283h-104zM221 0v981h127v-981h-127z" />
<glyph unicode="&#xed;" horiz-adv-x="569" d="M145 1108l228 283h157l-280 -283h-105zM221 0v981h127v-981h-127z" />
<glyph unicode="&#xee;" horiz-adv-x="569" d="M-16 1108l233 283h137l232 -283h-133l-168 207l-168 -207h-133zM221 0v981h127v-981h-127z" />
<glyph unicode="&#xef;" horiz-adv-x="569" d="M57 1128v209h133v-209h-133zM221 0v981h127v-981h-127zM383 1128v209h131v-209h-131z" />
<glyph unicode="&#xf0;" d="M117 496q0 129 41 245.5t130 191.5t222 75q61 0 116.5 -29t92.5 -80h14q-59 193 -127 305l-248 -100l-20 47l242 98q-55 90 -148 189l80 37q92 -100 154 -191l229 94l20 -49l-221 -90q215 -328 215 -756q0 -502 -405 -501q-197 0 -292 150.5t-95 363.5zM252 461 q0 -88 28.5 -171t90 -136.5t151.5 -53.5q135 0 193.5 112t58.5 261q0 164 -58.5 290t-203.5 126q-150 0 -205 -128t-55 -300z" />
<glyph unicode="&#xf1;" d="M152 0v934l129 70v-222q0 -8 6 -13t10 -1q6 6 31 37q61 82 130.5 136t178.5 54q133 0 184 -80.5t51 -220.5v-694h-133v698q0 61 -6 99.5t-34.5 65t-88.5 26.5q-61 0 -109 -24.5t-98 -71.5q-80 -74 -118 -160v-633h-133zM182 1130q8 78 54 138.5t126 60.5q33 0 56.5 -8 t113.5 -45q47 -20 74 -29.5t45 -9.5q49 0 67.5 31.5t24.5 70.5h80q-35 -198 -170 -198q-35 0 -64.5 9t-117.5 46q-47 20 -72 28.5t-43 8.5q-74 0 -100 -103h-74z" />
<glyph unicode="&#xf2;" d="M117 496q0 129 41 245.5t130 191.5t222 75q205 0 302 -154t97 -371q1 -501 -405 -501q-197 0 -292 150.5t-95 363.5zM241 1391h158l229 -283h-104zM252 461q0 -88 28.5 -171t90 -136.5t151.5 -53.5q135 0 193.5 112t58.5 261q0 164 -58.5 290t-203.5 126 q-150 0 -205 -128t-55 -300z" />
<glyph unicode="&#xf3;" d="M117 496q0 129 41 245.5t130 191.5t222 75q205 0 302 -154t97 -371q1 -501 -405 -501q-197 0 -292 150.5t-95 363.5zM252 461q0 -88 28.5 -171t90 -136.5t151.5 -53.5q135 0 193.5 112t58.5 261q0 164 -58.5 290t-203.5 126q-150 0 -205 -128t-55 -300zM372 1108l228 283 h157l-280 -283h-105z" />
<glyph unicode="&#xf4;" d="M117 496q0 129 41 245.5t130 191.5t222 75q205 0 302 -154t97 -371q1 -501 -405 -501q-197 0 -292 150.5t-95 363.5zM211 1108l233 283h137l232 -283h-133l-168 207l-168 -207h-133zM252 461q0 -88 28.5 -171t90 -136.5t151.5 -53.5q135 0 193.5 112t58.5 261 q0 164 -58.5 290t-203.5 126q-150 0 -205 -128t-55 -300z" />
<glyph unicode="&#xf5;" d="M117 496q0 129 41 245.5t130 191.5t222 75q205 0 302 -154t97 -371q1 -501 -405 -501q-197 0 -292 150.5t-95 363.5zM182 1130q8 78 54 138.5t126 60.5q33 0 56.5 -8t113.5 -45q47 -20 74 -29.5t45 -9.5q49 0 67.5 31.5t24.5 70.5h80q-35 -198 -170 -198q-35 0 -64.5 9 t-117.5 46q-47 20 -72 28.5t-43 8.5q-74 0 -100 -103h-74zM252 461q0 -88 28.5 -171t90 -136.5t151.5 -53.5q135 0 193.5 112t58.5 261q0 164 -58.5 290t-203.5 126q-150 0 -205 -128t-55 -300z" />
<glyph unicode="&#xf6;" d="M117 496q0 129 41 245.5t130 191.5t222 75q205 0 302 -154t97 -371q1 -501 -405 -501q-197 0 -292 150.5t-95 363.5zM252 461q0 -88 28.5 -171t90 -136.5t151.5 -53.5q135 0 193.5 112t58.5 261q0 164 -58.5 290t-203.5 126q-150 0 -205 -128t-55 -300zM284 1128v209h133 v-209h-133zM610 1128v209h131v-209h-131z" />
<glyph unicode="&#xf7;" horiz-adv-x="1228" d="M98 451v135h1032v-135h-1032zM483 78q0 53 39 92t92 39t92 -39t39 -92q0 -49 -38.5 -90t-90.5 -41q-53 0 -93 39t-40 92zM483 958q0 53 39 92.5t92 39.5t92 -39t39 -93q0 -49 -38.5 -90t-90.5 -41q-53 0 -93 39t-40 92z" />
<glyph unicode="&#xf8;" d="M117 496q0 129 41 245.5t130 191.5t222 75q111 0 195 -52l133 285h73l-151 -326q76 -69 112.5 -185t36.5 -247q0 -502 -405 -501q-92 0 -164 36l-141 -305h-72l158 340q-86 68 -127 186.5t-41 256.5zM252 461q0 -78 23.5 -154t68.5 -127l307 662q-57 47 -139 47 q-150 0 -205 -128t-55 -300zM395 135q59 -35 127 -35q135 0 193.5 112t58.5 261q0 201 -74 313z" />
<glyph unicode="&#xf9;" d="M156 291v690h135v-680q0 -66 8 -107.5t41 -72.5t100 -31q59 0 128 51.5t120 113.5t51 79v647h131v-934l-125 -65v219q0 12 -8 12t-20 -14q-66 -102 -139.5 -157.5t-178.5 -55.5q-135 0 -189 80.5t-54 224.5zM241 1391h158l229 -283h-104z" />
<glyph unicode="&#xfa;" d="M156 291v690h135v-680q0 -66 8 -107.5t41 -72.5t100 -31q59 0 128 51.5t120 113.5t51 79v647h131v-934l-125 -65v219q0 12 -8 12t-20 -14q-66 -102 -139.5 -157.5t-178.5 -55.5q-135 0 -189 80.5t-54 224.5zM372 1108l228 283h157l-280 -283h-105z" />
<glyph unicode="&#xfb;" d="M156 291v690h135v-680q0 -66 8 -107.5t41 -72.5t100 -31q59 0 128 51.5t120 113.5t51 79v647h131v-934l-125 -65v219q0 12 -8 12t-20 -14q-66 -102 -139.5 -157.5t-178.5 -55.5q-135 0 -189 80.5t-54 224.5zM211 1108l233 283h137l232 -283h-133l-168 207l-168 -207h-133 z" />
<glyph unicode="&#xfc;" d="M156 291v690h135v-680q0 -66 8 -107.5t41 -72.5t100 -31q59 0 128 51.5t120 113.5t51 79v647h131v-934l-125 -65v219q0 12 -8 12t-20 -14q-66 -102 -139.5 -157.5t-178.5 -55.5q-135 0 -189 80.5t-54 224.5zM284 1128v209h133v-209h-133zM610 1128v209h131v-209h-131z " />
<glyph unicode="&#xfd;" horiz-adv-x="909" d="M51 981h146l196 -541l41 -114q4 -12 10.5 -33t11.5 -31t11 -10t12 16.5t15 44.5q14 51 38 127l183 541h129l-350 -1012q-47 -137 -114 -217t-187 -80q-37 0 -65 7.5t-67 23.5v158h43q16 -29 36 -43.5t63 -14.5q74 0 109.5 55.5t66.5 153.5l18 54zM315 1108l228 283h157 l-280 -283h-105z" />
<glyph unicode="&#xfe;" d="M141 -354v1724l133 66v-625l2 -10h11q10 10 24 37q25 47 89.5 107.5t174.5 60.5q84 0 162 -51.5t129.5 -166t51.5 -290.5q0 -233 -92.5 -370.5t-256.5 -137.5q-113 0 -180 69.5t-90 124.5l-12 2q-6 -6 -6 -10v-530h-140zM274 471q0 -45 18.5 -117.5t49.5 -122.5 q37 -53 94.5 -90t116.5 -37q125 0 178 116t53 253q0 416 -243 416q-68 0 -128.5 -44t-99.5 -138.5t-39 -235.5z" />
<glyph unicode="&#xff;" horiz-adv-x="909" d="M51 981h146l196 -541l41 -114q4 -12 10.5 -33t11.5 -31t11 -10t12 16.5t15 44.5q14 51 38 127l183 541h129l-350 -1012q-47 -137 -114 -217t-187 -80q-37 0 -65 7.5t-67 23.5v158h43q16 -29 36 -43.5t63 -14.5q74 0 109.5 55.5t66.5 153.5l18 54zM227 1128v209h133v-209 h-133zM553 1128v209h131v-209h-131z" />
<glyph unicode="&#x152;" horiz-adv-x="1933" d="M117 680q0 315 144.5 497.5t449.5 182.5h1056v-113h-692v-469h590v-125h-590v-530h713v-123h-1034q-145 0 -277.5 34t-228.5 159q-84 109 -107.5 234.5t-23.5 252.5zM258 655q0 -248 102.5 -393t333.5 -145q106 0 158.5 28.5t65 67.5t12.5 92v774q0 51 -11.5 86 t-61.5 60.5t-152 25.5q-250 0 -348.5 -161.5t-98.5 -434.5z" />
<glyph unicode="&#x153;" horiz-adv-x="1593" d="M104 496q0 131 42 247.5t130.5 190.5t221.5 74q141 0 220 -63.5t107 -115.5q2 -2 9 -2q4 0 6 2q102 166 305 166q201 0 272.5 -139t75.5 -362h-600q-4 -170 54.5 -289t209.5 -119q74 0 121 30.5t94 80.5l92 -74q-53 -72 -131 -111t-168 -39q-127 0 -196.5 44t-128.5 120 q-12 12 -15 13q-4 -4 -44 -49.5t-72 -65.5q-47 -33 -97.5 -43t-122.5 -10q-176 0 -280.5 138t-104.5 376zM240 457q0 -80 25.5 -161t85 -138.5t153.5 -57.5q258 0 258 367q0 170 -57.5 295t-206.5 125q-150 0 -204 -128t-54 -302zM897 592h459q-8 291 -221 291 q-98 0 -162 -74t-76 -217z" />
<glyph unicode="&#x178;" horiz-adv-x="1366" d="M117 1360h157l361 -625q8 -14 18.5 -34.5t18.5 -29.5t18 -9q8 0 19.5 16t19.5 31.5t12 23.5q23 47 39 76l314 551h157l-491 -840v-520h-144v520zM456 1507v209h133v-209h-133zM782 1507v209h131v-209h-131z" />
<glyph unicode="&#x2c6;" horiz-adv-x="569" d="M-16 1108l233 283h137l232 -283h-133l-168 207l-168 -207h-133z" />
<glyph unicode="&#x2dc;" horiz-adv-x="569" d="M-45 1130q8 78 54 138.5t126 60.5q33 0 56.5 -8t113.5 -45q47 -20 74 -29.5t45 -9.5q49 0 67.5 31.5t24.5 70.5h80q-35 -198 -170 -198q-35 0 -64.5 9t-117.5 46q-47 20 -72 28.5t-43 8.5q-74 0 -100 -103h-74z" />
<glyph unicode="&#x2000;" horiz-adv-x="885" />
<glyph unicode="&#x2001;" horiz-adv-x="1770" />
<glyph unicode="&#x2002;" horiz-adv-x="885" />
<glyph unicode="&#x2003;" horiz-adv-x="1770" />
<glyph unicode="&#x2004;" horiz-adv-x="590" />
<glyph unicode="&#x2005;" horiz-adv-x="442" />
<glyph unicode="&#x2006;" horiz-adv-x="295" />
<glyph unicode="&#x2007;" horiz-adv-x="295" />
<glyph unicode="&#x2008;" horiz-adv-x="221" />
<glyph unicode="&#x2009;" horiz-adv-x="354" />
<glyph unicode="&#x200a;" horiz-adv-x="98" />
<glyph unicode="&#x2010;" horiz-adv-x="681" d="M80 471v113h524v-113h-524z" />
<glyph unicode="&#x2011;" horiz-adv-x="681" d="M80 471v113h524v-113h-524z" />
<glyph unicode="&#x2012;" horiz-adv-x="681" d="M80 471v113h524v-113h-524z" />
<glyph unicode="&#x2013;" d="M-2 479v99h1026v-99h-1026z" />
<glyph unicode="&#x2014;" horiz-adv-x="2048" d="M256 479v99h1536v-99h-1536z" />
<glyph unicode="&#x2018;" horiz-adv-x="569" d="M70 1389h135l235 -605h-127z" />
<glyph unicode="&#x2019;" horiz-adv-x="569" d="M129 784l236 605h135l-244 -605h-127z" />
<glyph unicode="&#x201a;" horiz-adv-x="569" d="M129 -369l236 605h135l-244 -605h-127z" />
<glyph unicode="&#x201c;" horiz-adv-x="1138" d="M133 1389h135l232 -607h-127zM621 1389h135l229 -607h-127z" />
<glyph unicode="&#x201d;" horiz-adv-x="1138" d="M154 782l231 607h133l-235 -607h-129zM639 782l231 607h136l-240 -607h-127z" />
<glyph unicode="&#x201e;" horiz-adv-x="1138" d="M55 -369l230 607h135l-238 -607h-127zM541 -369l231 607h135l-239 -607h-127z" />
<glyph unicode="&#x2022;" d="M236 717q-2 76 34.5 139.5t101 100t140.5 36.5t139.5 -36.5t100 -100t36.5 -139.5t-36.5 -139.5t-100 -100.5t-139.5 -37t-139.5 37t-100 100.5t-36.5 139.5z" />
<glyph unicode="&#x2026;" horiz-adv-x="2048" d="M387 106q0 51 37 87t86 36q51 0 88 -36.5t37 -86.5q0 -51 -37 -85.5t-86 -34.5q-51 0 -88 34.5t-37 85.5zM899 106q0 51 37 87t86 36q51 0 88 -36.5t37 -86.5q0 -51 -37 -85.5t-86 -34.5q-51 0 -88 34.5t-37 85.5zM1411 106q0 51 37 87t86 36q51 0 88 -36.5t37 -86.5 q0 -51 -37 -85.5t-86 -34.5q-51 0 -88 34.5t-37 85.5z" />
<glyph unicode="&#x202f;" horiz-adv-x="354" />
<glyph unicode="&#x2039;" horiz-adv-x="681" d="M115 477l254 324h135l-258 -322l280 -323h-135z" />
<glyph unicode="&#x203a;" horiz-adv-x="681" d="M156 156l280 323l-258 322h135l254 -324l-276 -321h-135z" />
<glyph unicode="&#x205f;" horiz-adv-x="442" />
<glyph unicode="&#x2122;" horiz-adv-x="2027" d="M131 1323v111h668v-111h-267v-733h-135v733h-266zM973 590v844h213l252 -641l248 641h210v-844h-135v708h-4l-278 -708h-88l-279 708h-4v-708h-135z" />
<glyph unicode="&#x25fc;" horiz-adv-x="983" d="M0 0v983h983v-983h-983z" />
<glyph unicode="&#xfb01;" horiz-adv-x="1138" d="M47 834v104h193v147q0 178 91 263.5t273 85.5q156 0 305 -68v-137q-170 92 -317 92q-135 0 -176 -67.5t-41 -178.5v-137h592v-938h-133v834h-459v-834h-135v834h-193z" />
<glyph unicode="&#xfb02;" horiz-adv-x="1138" d="M47 834v104h193v147q0 348 360 349q137 0 250 -43l113 41v-1432h-134v834h-456v-834h-133v834h-193zM373 938h456v330q-119 53 -233 53q-127 0 -175 -60.5t-48 -160.5v-162z" />
</font>
</defs>
</svg>
